<svg xmlns="http://www.w3.org/2000/svg" width="183" height="27" viewBox="0 0 183 27">
  <g fill="#0055A9">
    <path d="M11.7297814 19.91325L8.76103239 19.91325 8.76103239 11.223C8.76103239 10.1445 8.55951012 9.33975 8.15720648 8.80875 7.75490283 8.27775 7.12588664 8.01225 6.27015789 8.01225 5.12918623 8.01225 4.29272065 8.388 3.76002024 9.14025 3.22731984 9.89175 2.96134008 11.14275 2.96134008 12.8925L2.96134008 19.9125.00370445344 19.9125.00370445344 5.82 2.31898785 5.82 2.73462753 7.66725 2.88576923 7.66725C3.27177328 6.996 3.83114575 6.4785 4.56536842 6.1125 5.2988502 5.74725 6.10642105 5.565 6.98734008 5.565 9.1262915 5.565 10.5436154 6.30375 11.2400526 7.782L11.440834 7.782C11.8520283 7.08525 12.4299231 6.54225 13.1767409 6.1515 13.9228178 5.76075 14.7785466 5.565 15.7431862 5.565 17.4042632 5.565 18.6141377 5.9895 19.3728097 6.83925 20.1314818 7.689 20.5115587 8.98425 20.5115587 10.72575L20.5115587 19.9125 17.554664 19.9125 17.554664 11.223C17.554664 10.1445 17.3516599 9.33975 16.9449109 8.80875 16.5381619 8.27775 15.9069231 8.01225 15.0511943 8.01225 13.9020729 8.01225 13.0611619 8.37525 12.5284615 9.102 11.9957611 9.82875 11.7297814 10.94325 11.7297814 12.447L11.7297814 19.91325zM29.8371498 20.16825C27.673749 20.16825 25.9808138 19.5285 24.7605668 18.2505 23.5403198 16.97175 22.9298259 15.2115 22.9298259 12.969 22.9298259 10.66725 23.4958664 8.85825 24.6279474 7.54125 25.7600283 6.225 27.3158988 5.5665 29.2955587 5.5665 31.1322267 5.5665 32.5836316 6.13125 33.6482915 7.2615 34.7136923 8.391 35.2456518 9.94575 35.2456518 11.925L35.2456518 13.5435 25.9756275 13.5435C26.0178583 14.91075 26.3823765 15.96225 27.070664 16.6965 27.7582105 17.4315 28.7265547 17.799 29.9764372 17.799 30.798085 17.799 31.5634251 17.721 32.2724575 17.5635 32.980749 17.40675 33.7416437 17.145 34.5558826 16.77975L34.5558826 19.2135C33.8342551 19.56225 33.1052186 19.80825 32.3665506 19.95225 31.6278826 20.09625 30.7854899 20.16825 29.8371498 20.16825zM29.2962996 7.83375C28.3568502 7.83375 27.6041053 8.13525 27.0380648 8.739 26.4720243 9.34275 26.1341781 10.22175 26.0252672 11.37675L32.3406194 11.37675C32.3235789 10.21275 32.0472267 9.3315 31.510081 8.733 30.974417 8.13375 30.235749 7.83375 29.2962996 7.83375zM43.8066437 20.16825C41.6432429 20.16825 39.9503077 19.5285 38.7300607 18.2505 37.5098138 16.97175 36.8993198 15.2115 36.8993198 12.969 36.8993198 10.66725 37.4653603 8.85825 38.5974413 7.54125 39.7295223 6.225 41.2853927 5.5665 43.2650526 5.5665 45.1017206 5.5665 46.5531255 6.13125 47.6177854 7.2615 48.6831862 8.391 49.2151457 9.94575 49.2151457 11.925L49.2151457 13.5435 39.9451215 13.5435C39.9873522 14.91075 40.3518704 15.96225 41.0401579 16.6965 41.7277045 17.4315 42.6960486 17.799 43.9459312 17.799 44.7675789 17.799 45.532919 17.721 46.2419514 17.5635 46.9502429 17.40675 47.7111377 17.145 48.5253765 16.77975L48.5253765 19.2135C47.803749 19.56225 47.0747126 19.80825 46.3360445 19.95225 45.5973765 20.09625 44.7549838 20.16825 43.8066437 20.16825zM43.2657935 7.83375C42.3263441 7.83375 41.5735992 8.13525 41.0075587 8.739 40.4415182 9.34275 40.1036721 10.22175 39.9947611 11.37675L46.3101134 11.37675C46.2930729 10.21275 46.0167206 9.3315 45.4795749 8.733 44.9439109 8.13375 44.2052429 7.83375 43.2657935 7.83375zM56.8826235 17.74725C57.604251 17.74725 58.3251377 17.6325 59.0467652 17.403L59.0467652 19.65825C58.7200324 19.80225 58.2984656 19.92375 57.7820648 20.02125 57.2664049 20.11875 56.7314818 20.1675 56.1780364 20.1675 53.3767287 20.1675 51.9757045 18.67275 51.9757045 15.6825L51.9757045 8.08875 50.0768016 8.08875 50.0768016 6.7635 52.1149919 5.66775 53.1211215 2.68575 54.9451943 2.68575 54.9451943 5.82 58.9082186 5.82 58.9082186 8.088 54.9451943 8.088 54.9451943 15.6315C54.9451943 16.35375 55.1230081 16.88625 55.4801174 17.2305 55.8364858 17.5755 56.3047287 17.74725 56.8826235 17.74725zM60.7752632 2.088C60.7752632 1.5525 60.9197368 1.14075 61.2086842.852 61.4983725.56325 61.9110486.4185 62.4481943.4185 62.9682996.4185 63.3728259.56325 63.6625142.852 63.9522024 1.14075 64.0959352 1.5525 64.0959352 2.088 64.0959352 2.59725 63.9514615 2.9985 63.6625142 3.29175 63.3728259 3.585 62.9682996 3.73125 62.4481943 3.73125 61.9110486 3.73125 61.4983725 3.585 61.2086842 3.29175 60.9197368 2.9985 60.7752632 2.59725 60.7752632 2.088zM63.907749 19.91325L60.9508543 19.91325 60.9508543 5.82075 63.907749 5.82075 63.907749 19.91325zM79.4997935 19.91325L76.5303036 19.91325 76.5303036 11.24925C76.5303036 10.16175 76.3139636 9.351 75.8827652 8.8155 75.4508259 8.28075 74.7647611 8.013 73.8260526 8.013 72.57617 8.013 71.6619109 8.38725 71.0832753 9.13425 70.5046397 9.882 70.2156923 11.1345 70.2156923 12.89325L70.2156923 19.91325 67.2587976 19.91325 67.2587976 5.82075 69.574081 5.82075 69.9897206 7.668 70.1408623 7.668C70.5602065 6.99675 71.1558826 6.47925 71.9271498 6.11325 72.6991579 5.748 73.5541457 5.56575 74.4935951 5.56575 77.8313077 5.56575 79.5005344 7.2855 79.5005344 10.72575L79.5005344 19.91325 79.4997935 19.91325zM94.4880121 5.82075L94.4880121 7.464 92.1104939 7.91025C92.3283158 8.20725 92.5083522 8.5725 92.6513441 9.006 92.7928543 9.4395 92.8647206 9.89775 92.8647206 10.38225 92.8647206 11.835 92.3698057 12.97725 91.3807166 13.80975 90.3908866 14.64225 89.0283887 15.0585 87.2917409 15.0585 86.8472065 15.0585 86.4441619 15.02475 86.0840891 14.9565 85.4469231 15.3555 85.1275992 15.82275 85.1275992 16.3575 85.1275992 16.68075 85.2765182 16.923 85.5743563 17.08425 85.8721943 17.2455 86.4197126 17.3265 87.21617 17.3265L89.6440688 17.3265C91.1784534 17.3265 92.3446154 17.65725 93.1418138 18.3195 93.9375304 18.9825 94.3368704 19.938 94.3368704 21.18675 94.3368704 22.7835 93.6871093 24.015 92.3861053 24.882 91.086583 25.74825 89.2076842 26.181 86.7501498 26.181 84.8542105 26.181 83.4079919 25.84125 82.4100121 25.16175 81.4120324 24.48225 80.9126721 23.514 80.9126721 22.257 80.9126721 21.39075 81.1830972 20.66175 81.7239474 20.0715 82.2647976 19.482 83.021247 19.07175 83.9947773 18.84225 83.6006235 18.672 83.2753725 18.39825 83.0197652 18.02025 82.763417 17.64225 82.6359838 17.24475 82.6359838 16.8285 82.6359838 16.302 82.7826802 15.85575 83.0760729 15.4905 83.3694656 15.126 83.8058502 14.7645 84.3844858 14.40825 83.6628583 14.094 83.0782955 13.58175 82.6293158 12.87225 82.180336 12.1635 81.9558462 11.33325 81.9558462 10.3815 81.9558462 8.85225 82.4322389 7.66725 83.3835425 6.8265 84.335587 5.985 85.6921579 5.565 87.4532551 5.565 87.8474089 5.565 88.2608259 5.59275 88.6927652 5.6475 89.1247045 5.703 89.4492146 5.76 89.6677773 5.81925L94.4880121 5.81925 94.4880121 5.82075zM83.5554291 22.10475C83.5554291 22.74975 83.8428947 23.247 84.417085 23.59575 84.9912753 23.94375 85.7988462 24.11775 86.8390567 24.11775 88.449753 24.11775 89.6485142 23.88375 90.4368219 23.4165 91.2251296 22.94925 91.6192834 22.329 91.6192834 21.5565 91.6192834 20.94525 91.4029433 20.5095 90.971004 20.25075 90.5390648 19.992 89.7359393 19.8615 88.5623684 19.8615L86.3233968 19.8615C85.4758178 19.8615 84.8030891 20.064 84.3037287 20.4675 83.8051093 20.87025 83.5554291 21.417 83.5554291 22.10475zM84.8260567 10.38225C84.8260567 11.26575 85.0505466 11.94525 85.4995263 12.42075 85.9477652 12.897 86.5915992 13.134 87.4302874 13.134 89.1417449 13.134 89.9967328 12.2085 89.9967328 10.356 89.9967328 9.43875 89.7848381 8.7315 89.3617895 8.23425 88.9387409 7.737 88.2949069 7.48875 87.4310283 7.48875 86.5752996 7.48875 85.9277611 7.7355 85.4869312 8.2275 85.0461012 8.7195 84.8260567 9.4395 84.8260567 10.38225zM102.217725 20.16825C100.112113 20.16825 98.5777287 19.37025 97.6130891 17.77275L97.5249231 17.77275 97.5634494 18.84375C97.5967895 19.47225 97.6130891 20.16 97.6130891 20.90775L97.6130891 26.1825 96.3676518 26.1825 96.3676518 6.063 97.4241619 6.063 97.6634696 8.03775 97.7390405 8.03775C98.6784899 6.543 100.179534 5.79525 102.242915 5.79525 104.087733 5.79525 105.495425 6.40875 106.463769 7.6365 107.432113 8.86425 107.916656 10.65 107.916656 12.9945 107.916656 15.27075 107.406923 17.0355 106.388198 18.28875 105.369474 19.542 103.978822 20.16825 102.217725 20.16825zM102.192534 19.047C103.593559 19.047 104.677482 18.5205 105.445045 17.4675 106.212607 16.4145 106.596389 14.94075 106.596389 13.0455 106.596389 8.97675 105.145725 6.94275 102.243656 6.94275 100.65 6.94275 99.4801336 7.38675 98.7340567 8.274 97.9872389 9.162 97.61383 10.608 97.61383 12.61275L97.61383 13.02075C97.61383 15.18675 97.9724211 16.7325 98.6896032 17.65875 99.4067854 18.585 100.573688 19.047 102.192534 19.047zM119.130777 19.91325L118.815899 17.72175 118.715138 17.72175C118.02685 18.6135 117.320781 19.24425 116.595449 19.61325 115.870117 19.983 115.012166 20.1675 114.022336 20.1675 112.679842 20.1675 111.635927 19.8195 110.88985 19.122 110.143032 18.426 109.769623 17.4615 109.769623 16.23 109.769623 14.87925 110.325291 13.83075 111.436628 13.083 112.547964 12.336 114.156437 11.9415 116.261308 11.898L118.866279 11.8215 118.866279 10.905C118.866279 9.58875 118.601781 8.59425 118.073526 7.92375 117.545271 7.25325 116.693988 6.91725 115.519676 6.91725 114.253494 6.91725 112.941377 7.27425 111.582583 7.9875L111.117304 6.89175C112.617607 6.17775 114.102352 5.8215 115.570798 5.8215 117.071842 5.8215 118.193551 6.21675 118.935923 7.0065 119.678296 7.79625 120.049482 9.02775 120.049482 10.70175L120.049482 19.914 119.130777 19.914 119.130777 19.91325zM114.098648 19.02075C115.558202 19.02075 116.708806 18.5985 117.551939 17.75325 118.395073 16.908 118.815899 15.73425 118.815899 14.2305L118.815899 12.86775 116.425045 12.96975C114.504656 13.0635 113.13549 13.3665 112.317547 13.881 111.499603 14.3955 111.091372 15.19575 111.091372 16.2825 111.091372 17.14875 111.353648 17.82225 111.878198 18.3015 112.402008 18.7815 113.142158 19.02075 114.098648 19.02075zM129.060935 20.16825C127.106466 20.16825 125.576526 19.54425 124.468895 18.2955 123.362004 17.04675 122.808559 15.30525 122.808559 13.071 122.808559 10.7775 123.382749 8.99175 124.53187 7.713 125.680992 6.43425 127.253903 5.79525 129.249862 5.79525 130.432324 5.79525 131.564405 6.00375 132.646846 6.42L132.306777 7.54125C131.124316 7.14225 130.097441 6.94275 129.224672 6.94275 127.547296 6.94275 126.276668 7.467 125.412789 8.51625 124.54817 9.5655 124.116972 11.07525 124.116972 13.0455 124.116972 14.9145 124.54817 16.377 125.412789 17.43525 126.275927 18.49275 127.48432 19.0215 129.035745 19.0215 130.277478 19.0215 131.430304 18.7965 132.495704 18.3465L132.495704 19.51875C131.622935 19.9515 130.478259 20.16825 129.060935 20.16825z"/>
    <polygon points="136.186 13.835 143.169 6.063 144.678 6.063 139.293 11.975 145.143 19.913 143.646 19.913 138.45 12.918 136.211 14.983 136.211 19.913 134.966 19.913 134.966 .087 136.211 .087 136.211 10.025 136.123 13.835"/>
    <path d="M154.861713 19.91325L154.546834 17.72175 154.446073 17.72175C153.757785 18.6135 153.051717 19.24425 152.326385 19.61325 151.601053 19.983 150.743101 20.1675 149.753271 20.1675 148.410777 20.1675 147.366862 19.8195 146.620785 19.122 145.873968 18.426 145.500559 17.4615 145.500559 16.23 145.500559 14.87925 146.056227 13.83075 147.167563 13.083 148.278899 12.336 149.887372 11.9415 151.992243 11.898L154.597215 11.8215 154.597215 10.905C154.597215 9.58875 154.332717 8.59425 153.804462 7.92375 153.276206 7.25325 152.424923 6.91725 151.250611 6.91725 149.984429 6.91725 148.672312 7.27425 147.313518 7.9875L146.848239 6.89175C148.348543 6.17775 149.833287 5.8215 151.301733 5.8215 152.802777 5.8215 153.924486 6.21675 154.666858 7.0065 155.409231 7.79625 155.780417 9.02775 155.780417 10.70175L155.780417 19.914 154.861713 19.914 154.861713 19.91325zM149.829583 19.02075C151.289138 19.02075 152.439741 18.5985 153.282874 17.75325 154.126008 16.908 154.546834 15.73425 154.546834 14.2305L154.546834 12.86775 152.15598 12.96975C150.235591 13.0635 148.866425 13.3665 148.048482 13.881 147.230538 14.3955 146.822308 15.19575 146.822308 16.2825 146.822308 17.14875 147.084583 17.82225 147.609134 18.3015 148.132202 18.7815 148.873093 19.02075 149.829583 19.02075zM170.000332 6.063L170.000332 6.942 167.169389 7.1205C167.925097 8.07225 168.30147 9.117 168.30147 10.25475 168.30147 11.58825 167.862862 12.669 166.98713 13.49775 166.111397 14.3265 164.934121 14.73975 163.458267 14.73975 162.837401 14.73975 162.401016 14.71425 162.149854 14.66325 161.654198 14.9265 161.277085 15.23625 161.017773 15.59325 160.75698 15.95025 160.628065 16.3275 160.628065 16.72725 160.628065 17.169 160.793283 17.49225 161.124462 17.6955 161.45564 17.89875 162.011308 18.0015 162.791466 18.0015L165.18232 18.0015C166.667065 18.0015 167.803591 18.3045 168.591899 18.912 169.380206 19.52025 169.775101 20.418 169.775101 21.6075 169.775101 23.06775 169.189798 24.19575 168.019931 24.99 166.850065 25.785 165.183061 26.18175 163.018919 26.18175 161.300053 26.18175 159.968672 25.8465 159.024777 25.17525 158.081623 24.50325 157.608935 23.5695 157.608935 22.3725 157.608935 21.42 157.900846 20.631 158.483927 20.0025 159.066267 19.374 159.857538 18.945 160.855518 18.7155 160.443583 18.537 160.114628 18.28425 159.867911 17.95725 159.620453 17.6295 159.496725 17.25375 159.496725 16.82925 159.496725 15.90375 160.079065 15.0885 161.245227 14.38275 160.448028 14.052 159.827162 13.53075 159.382628 12.822 158.938093 12.1125 158.716567 11.2995 158.716567 10.38225 158.716567 8.99775 159.150729 7.887 160.018312 7.05075 160.886636 6.21375 162.058725 5.79525 163.534579 5.79525 164.432538 5.79525 165.128235 5.8845 165.62315 6.063L170.000332 6.063 170.000332 6.063zM158.929202 22.25775C158.929202 24.1605 160.325781 25.11225 163.118198 25.11225 166.708555 25.11225 168.503733 23.95275 168.503733 21.63375 168.503733 20.80125 168.222194 20.1975 167.660599 19.824 167.098263 19.4505 166.188449 19.26375 164.929676 19.26375L162.690704 19.26375C160.182789 19.26375 158.929202 20.26125 158.929202 22.25775zM159.973117 10.38225C159.973117 11.4525 160.294664 12.28275 160.936275 12.873 161.577146 13.464 162.435097 13.7595 163.508648 13.7595 164.649619 13.7595 165.52387 13.4655 166.132142 12.87975 166.739672 12.294 167.044178 11.44425 167.044178 10.332 167.044178 9.1515 166.731522 8.26575 166.106211 7.6755 165.480899 7.08525 164.607389 6.78975 163.483457 6.78975 162.392866 6.78975 161.534915 7.10625 160.910344 7.73925 160.285773 8.3715 159.973117 9.25275 159.973117 10.38225zM177.452951 20.16825C175.465142 20.16825 173.915939 19.548 172.804603 18.30825 171.693267 17.0685 171.137599 15.33075 171.137599 13.09725 171.137599 10.8885 171.674745 9.12 172.748296 7.79025 173.821846 6.4605 175.268065 5.796 177.088433 5.796 178.698389 5.796 179.969757 6.36525 180.900316 7.50375 181.831615 8.64225 182.296895 10.188 182.296895 12.14175L182.296895 13.161 172.446753 13.161C172.463053 15.06375 172.900919 16.5165 173.761093 17.5185 174.620526 18.52125 175.851146 19.02225 177.452951 19.02225 178.233109 19.02225 178.919174 18.9675 179.509664 18.8565 180.100895 18.747 180.849935 18.5085 181.755304 18.14325L181.755304 19.29C180.983296 19.62975 180.270559 19.8615 179.616352 19.9845 178.962146 20.1075 178.240518 20.16825 177.452951 20.16825zM177.088433 6.9165C175.77187 6.9165 174.714619 7.356 173.918162 8.235 173.121704 9.114 172.655684 10.38225 172.521583 12.03825L180.975887 12.03825C180.975887 10.4325 180.631372 9.17775 179.943826 8.27325 179.255538 7.36875 178.303494 6.9165 177.088433 6.9165zM169.938838 26.196C169.938838 26.08725 169.963287 26.0055 170.013668 25.94775 170.061826 25.89225 170.132211 25.8645 170.224822 25.8645 170.318174 25.8645 170.390781 25.89225 170.444126 25.94775 170.495988 26.0055 170.521919 26.088 170.521919 26.196 170.521919 26.30325 170.494506 26.38575 170.442644 26.44275 170.3893 26.49825 170.315211 26.52825 170.224822 26.52825 170.141842 26.52825 170.074421 26.50125 170.020336 26.45025 169.966251 26.4 169.938838 26.31525 169.938838 26.196zM172.889806 23.199C172.500097 23.199 172.194109 23.33025 171.969619 23.5905 171.744389 23.853 171.633255 24.21225 171.633255 24.66675 171.633255 25.1355 171.740684 25.497 171.957765 25.75275 172.174846 26.00775 172.483798 26.136 172.883879 26.136 173.130595 26.136 173.412134 26.091 173.729235 26.001L173.729235 26.3655C173.484 26.46 173.181717 26.505 172.821644 26.505 172.300057 26.505 171.898494 26.34525 171.615474 26.02575 171.332453 25.70625 171.193166 25.251 171.193166 24.6615 171.193166 24.29325 171.260587 23.97 171.39617 23.69325 171.531753 23.4165 171.72883 23.202 171.985919 23.052 172.243749 22.90125 172.546032 22.82625 172.894251 22.82625 173.264696 22.82625 173.588466 22.89675 173.8663 23.0325L173.69219 23.39025C173.423247 23.262 173.156526 23.199 172.889806 23.199zM177.567789 24.6615C177.567789 25.23525 177.425538 25.686 177.138814 26.01375 176.85283 26.34225 176.454972 26.505 175.946721 26.505 175.425874 26.505 175.023571 26.34375 174.740551 26.02125 174.45753 25.69875 174.315279 25.24425 174.315279 24.65775 174.315279 24.07425 174.45753 23.6235 174.742032 23.3025 175.025053 22.98075 175.428838 22.821 175.951166 22.821 176.459417 22.821 176.856534 22.98375 177.140296 23.31 177.42702 23.637 177.567789 24.08775 177.567789 24.6615zM174.750923 24.6615C174.750923 25.146 174.853166 25.515 175.057652 25.7655 175.260656 26.01675 175.557753 26.1405 175.94598 26.1405 176.33717 26.1405 176.632785 26.01675 176.833567 25.76625 177.032866 25.5165 177.132887 25.149 177.132887 24.6615 177.132887 24.18 177.032126 23.81475 176.833567 23.568 176.633526 23.3175 176.340134 23.193 175.950425 23.193 175.558494 23.193 175.260656 23.319 175.057652 23.57025 174.853166 23.81925 174.750923 24.1845 174.750923 24.6615zM179.920117 26.457L178.721356 23.28375 178.702834 23.28375C178.725802 23.535 178.736174 23.8335 178.736174 24.18L178.736174 26.457 178.357579 26.457 178.357579 22.878 178.975482 22.878 180.094968 25.83075 180.114972 25.83075 181.244089 22.878 181.857547 22.878 181.857547 26.457 181.446352 26.457 181.446352 24.15075C181.446352 23.886 181.458206 23.59875 181.481174 23.289L181.46117 23.289 180.252036 26.45775 179.920117 26.45775 179.920117 26.457z"/>
  </g>
</svg>
